<svg class="w-4 h-4" fill="currentColor" viewBox="0 0 24 24" xmlns="http://www.w3.org/2000/svg"><path d="M12 2.2c3.2 0 3.6 0 4.8.1 1.2.1 1.8.2 2.2.4.6.2 1 .5 1.4 1 .5.4.8.8 1 1.4.2.4.4 1 .4 2.2.1 1.2.1 1.6.1 4.8s0 3.6-.1 4.8c-.1 1.2-.2 1.8-.4 2.2-.2.6-.5 1-1 1.4-.4.5-.8.8-1.4 1-.4.2-1 .4-2.2.4-1.2.1-1.6.1-4.8.1s-3.6 0-4.8-.1c-1.2-.1-1.8-.2-2.2-.4a3.5 3.5 0 01-1.4-1c-.5-.4-.8-.8-1-1.4-.2-.4-.4-1-.4-2.2C2.2 15.6 2.2 15.2 2.2 12s0-3.6.1-4.8c.1-1.2.2-1.8.4-2.2.2-.6.5-1 1-1.4.4-.5.8-.8 1.4-1 .4-.2 1-.4 2.2-.4C8.4 2.2 8.8 2.2 12 2.2zm0 1.8c-3.2 0-3.5 0-4.7.1-1.1 0-1.7.2-2 .4-.5.2-.9.4-1.2.7-.3.3-.6.7-.8 1.2-.1.3-.3.9-.3 2-.1 1.2-.1 1.5-.1 4.6s0 3.4.1 4.6c0 1.1.2 1.7.3 2 .2.5.4.9.8 1.2.3.4.7.6 1.2.8.3.1.9.3 2 .3 1.2.1 1.5.1 4.7.1s3.5 0 4.7-.1c1.1 0 1.7-.2 2-.3.5-.2.9-.4 1.2-.8.4-.3.6-.7.8-1.2.1-.3.3-.9.3-2 .1-1.2.1-1.5.1-4.6s0-3.4-.1-4.6c0-1.1-.2-1.7-.3-2a3 3 0 00-.8-1.2 3 3 0 00-1.2-.7c-.3-.2-.9-.4-2-.4-1.2-.1-1.5-.1-4.7-.1zm0 3a5 5 0 110 10 5 5 0 010-10zm0 1.8a3.2 3.2 0 100 6.4 3.2 3.2 0 000-6.4zm5.2-2a1.2 1.2 0 110 2.4 1.2 1.2 0 010-2.4z"></path></svg>