<svg class="w-4 h-4" fill="currentColor" viewBox="0 0 24 24" xmlns="http://www.w3.org/2000/svg"><path d="M12 2.2c3.2 0 3.6 0 4.8.1 1.2.1 1.8.2 2.2.4.6.2 1 .5 1.4 1 .5.4.8.8 1 1.4.2.4.4 1 .4 2.2.1 1.2.1 1.6.1 4.8s0 3.6-.1 4.8c-.1 1.2-.2 1.8-.4 2.2-.2.6-.5 1-1 1.4-.4.5-.8.8-1.4 1-.4.2-1 .4-2.2.4-1.2.1-1.6.1-4.8.1s-3.6 0-4.8-.1c-1.2-.1-1.8-.2-2.2-.4a3.5 3.5 0 01-1.4-1c-.5-.4-.8-.8-1-1.4-.2-.4-.4-1-.4-2.2C2.2 15.6 2.2 15.2 2.2 12s0-3.6.1-4.8c.1-1.2.2-1.8.4-2.2.2-.6.5-1 1-1.4.4-.5.8-.8 1.4-1 .4-.2 1-.4 2.2-.4C8.4 2.2 8.8 2.2 12 2.2z"></path></svg>